<svg width="76" height="75" viewBox="0 0 76 75" fill="none" xmlns="http://www.w3.org/2000/svg">
<rect x="0.90065" width="75" height="75" rx="23.4359" fill="#F9EEF8"/>
<path d="M29.9381 24.8434V19.2184C29.9381 18.8455 30.0863 18.4878 30.35 18.224C30.6137 17.9603 30.9714 17.8122 31.3444 17.8122C31.7173 17.8122 32.075 17.9603 32.3387 18.224C32.6025 18.4878 32.7506 18.8455 32.7506 19.2184V24.8434C32.7506 25.2164 32.6025 25.5741 32.3387 25.8378C32.075 26.1015 31.7173 26.2497 31.3444 26.2497C30.9714 26.2497 30.6137 26.1015 30.35 25.8378C30.0863 25.5741 29.9381 25.2164 29.9381 24.8434ZM36.9694 26.2497C37.3423 26.2497 37.7 26.1015 37.9637 25.8378C38.2275 25.5741 38.3756 25.2164 38.3756 24.8434V19.2184C38.3756 18.8455 38.2275 18.4878 37.9637 18.224C37.7 17.9603 37.3423 17.8122 36.9694 17.8122C36.5964 17.8122 36.2387 17.9603 35.975 18.224C35.7113 18.4878 35.5631 18.8455 35.5631 19.2184V24.8434C35.5631 25.2164 35.7113 25.5741 35.975 25.8378C36.2387 26.1015 36.5964 26.2497 36.9694 26.2497ZM42.5944 26.2497C42.9673 26.2497 43.325 26.1015 43.5887 25.8378C43.8525 25.5741 44.0006 25.2164 44.0006 24.8434V19.2184C44.0006 18.8455 43.8525 18.4878 43.5887 18.224C43.325 17.9603 42.9673 17.8122 42.5944 17.8122C42.2214 17.8122 41.8637 17.9603 41.6 18.224C41.3363 18.4878 41.1881 18.8455 41.1881 19.2184V24.8434C41.1881 25.2164 41.3363 25.5741 41.6 25.8378C41.8637 26.1015 42.2214 26.2497 42.5944 26.2497ZM59.4694 36.0934V37.4997C59.4684 39.2877 58.7862 41.0083 57.5617 42.3112C56.3371 43.6141 54.6621 44.4016 52.8776 44.5133C51.909 47.2224 50.2773 49.6457 48.1315 51.5622H52.4381C52.8111 51.5622 53.1688 51.7103 53.4325 51.974C53.6962 52.2378 53.8444 52.5955 53.8444 52.9684C53.8444 53.3414 53.6962 53.6991 53.4325 53.9628C53.1688 54.2265 52.8111 54.3747 52.4381 54.3747H21.5006C21.1276 54.3747 20.77 54.2265 20.5062 53.9628C20.2425 53.6991 20.0944 53.3414 20.0944 52.9684C20.0944 52.5955 20.2425 52.2378 20.5062 51.974C20.77 51.7103 21.1276 51.5622 21.5006 51.5622H25.8073C24.0152 49.9757 22.5796 48.0276 21.5949 45.8461C20.6102 43.6646 20.0988 41.2993 20.0944 38.9059V30.4684C20.0944 30.0955 20.2425 29.7378 20.5062 29.474C20.77 29.2103 21.1276 29.0622 21.5006 29.0622H52.4381C54.3029 29.0622 56.0913 29.803 57.41 31.1216C58.7286 32.4402 59.4694 34.2286 59.4694 36.0934ZM56.6569 36.0934C56.6559 35.2218 56.3849 34.3719 55.8813 33.6606C55.3777 32.9492 54.6661 32.4113 53.8444 32.1208V38.9059C53.8455 39.7891 53.7749 40.6709 53.6334 41.5426C54.506 41.2849 55.2718 40.7519 55.8166 40.0233C56.3615 39.2947 56.6562 38.4095 56.6569 37.4997V36.0934Z" fill="#883F7C"/>
</svg>
