<svg width="21" height="20" viewBox="0 0 21 20" fill="none" xmlns="http://www.w3.org/2000/svg">
<path d="M2.68396 2.69231H17.8016C19.0665 2.69231 20.0138 3.85195 19.7613 5.09148L19.2035 7.83019C19.0291 8.68652 18.3189 9.33044 17.4496 9.4204L4.78711 10.7308M2.68396 2.69231L1.25 0.5M2.68396 2.69231L4.78711 10.7308M17.7406 13.6538H8.57335C6.79341 13.6538 5.23764 12.4528 4.78711 10.7308M8.41984 18.0384C8.41984 18.8456 7.77783 19.5 6.98588 19.5C6.19392 19.5 5.55191 18.8456 5.55191 18.0384C5.55191 17.2313 6.19392 16.5769 6.98588 16.5769C7.77783 16.5769 8.41984 17.2313 8.41984 18.0384ZM17.7406 18.0384C17.7406 18.8456 17.0986 19.5 16.3066 19.5C15.5147 19.5 14.8727 18.8456 14.8727 18.0384C14.8727 17.2313 15.5147 16.5769 16.3066 16.5769C17.0986 16.5769 17.7406 17.2313 17.7406 18.0384Z" stroke="white" stroke-linecap="round"/>
</svg>
