<svg width="20" height="20" viewBox="0 0 20 20" fill="none" xmlns="http://www.w3.org/2000/svg">
<path d="M1.93396 2.69231H17.0516C18.3165 2.69231 19.2638 3.85195 19.0113 5.09148L18.4535 7.83019C18.2791 8.68652 17.5689 9.33044 16.6996 9.4204L4.03711 10.7308M1.93396 2.69231L0.5 0.5M1.93396 2.69231L4.03711 10.7308M16.9906 13.6538H7.82335C6.04341 13.6538 4.48764 12.4528 4.03711 10.7308M7.66984 18.0384C7.66984 18.8456 7.02783 19.5 6.23588 19.5C5.44392 19.5 4.80191 18.8456 4.80191 18.0384C4.80191 17.2313 5.44392 16.5769 6.23588 16.5769C7.02783 16.5769 7.66984 17.2313 7.66984 18.0384ZM16.9906 18.0384C16.9906 18.8456 16.3486 19.5 15.5566 19.5C14.7647 19.5 14.1227 18.8456 14.1227 18.0384C14.1227 17.2313 14.7647 16.5769 15.5566 16.5769C16.3486 16.5769 16.9906 17.2313 16.9906 18.0384Z" stroke="#1362B6" stroke-linecap="round"/>
</svg>
