<svg width="76" height="75" viewBox="0 0 76 75" fill="none" xmlns="http://www.w3.org/2000/svg">
<rect x="0.0993805" width="75" height="75" rx="23.4359" fill="#F8ECEB"/>
<path d="M22.5899 45.9375V30H20.7149V28.125H22.5899V26.25H20.7149V24.375H22.5899V22.5H20.7149V20.625H31.9649C32.9024 20.6813 33.7462 21.075 34.4774 21.8063C35.2087 22.5375 35.6212 23.4375 35.7149 24.375H54.4649V26.25H35.7149C35.6212 27.2438 35.2087 28.125 34.4774 28.9313C33.7462 29.7375 32.9024 30.0938 31.9649 30H28.2149V43.2188C28.3087 43.2188 28.4587 43.2 28.6649 43.125C28.8712 43.05 29.0399 43.125 29.1524 43.125C30.2024 43.125 31.4024 43.3875 32.7524 43.9125C33.5212 42.1875 34.8337 40.65 36.7087 39.375C38.5837 38.1 40.4587 37.5 42.3337 37.5C45.2024 37.5 47.6399 38.4938 49.6274 40.4813C51.6149 42.4688 52.5899 44.9063 52.5899 47.8125V48.3188C52.5899 48.5625 52.5337 48.6938 52.5337 48.75H20.9774C21.2212 47.8125 21.7462 46.875 22.5899 45.9375ZM26.3399 43.5563V30H24.4649V44.4375C25.4024 43.9688 25.9837 43.6875 26.3399 43.5563ZM31.9649 28.125V26.25H28.2149V28.125H31.9649ZM31.9649 22.5H28.2149V24.375H31.9649V22.5ZM24.4649 22.5V24.375H26.3399V22.5H24.4649ZM24.4649 26.25V28.125H26.3399V26.25H24.4649ZM18.8399 50.625H56.3399L52.5899 54.375H22.5899L18.8399 50.625Z" fill="#BE5B5E"/>
</svg>
