<svg width="76" height="75" viewBox="0 0 76 75" fill="none" xmlns="http://www.w3.org/2000/svg">
<rect x="0.500015" width="75" height="75" rx="23.4359" fill="#FAECCB"/>
<path d="M49.7344 45.9375H32.1879L28.5844 49.0137L24.9808 45.9375H17.3906V48.0469C17.3906 50.7354 19.2477 52.9257 21.5443 52.9687C21.7579 54.2976 22.2747 55.4982 23.0525 56.4378C24.203 57.8273 25.8756 58.5937 27.7617 58.5937H39.3633C41.2494 58.5937 42.922 57.8273 44.0724 56.436C44.8503 55.4965 45.3671 54.2959 45.5807 52.967C46.8006 52.945 47.8966 52.3166 48.6568 51.3296C49.3669 50.3834 49.7456 49.2298 49.7344 48.0469V45.9375ZM25.2129 43.125L28.5817 45.6026L31.9805 43.125H49.7344V42.4219C49.7334 41.6117 49.4531 40.8267 48.9408 40.1991C48.4285 39.5715 47.7154 39.1397 46.9219 38.9766C46.8498 36.3671 45.7793 34.183 43.8009 32.6484C41.971 31.2211 39.5259 30.4688 36.7265 30.4688H30.3984C24.4025 30.4688 20.3411 33.8763 20.2031 38.9766C19.4096 39.1397 18.6965 39.5715 18.1842 40.1991C17.6719 40.8267 17.3916 41.6117 17.3906 42.4219V43.125H25.2129Z" fill="#E5841B"/>
<path d="M56.6847 23.4375H50.1289L50.9129 20.3034L54.832 18.9551L53.9531 16.4063L48.5038 18.1641L47.2303 23.4375H34.2656V26.25H35.9135L36.077 27.6563H36.7265C40.1542 27.6563 43.2005 28.6143 45.5261 30.4266C46.8196 31.4233 47.8682 32.7024 48.5917 34.1663C49.0376 35.0745 49.355 36.0403 49.5348 37.036C50.8445 37.8423 51.8157 39.0981 52.2668 40.5684C52.7179 42.0388 52.6181 43.6231 51.9861 45.0252C52.3564 45.9896 52.5465 47.0138 52.5468 48.0469C52.5468 50.0104 51.8789 51.8816 50.666 53.316C49.9154 54.2101 48.9539 54.9034 47.8684 55.333C47.4985 56.3873 46.9473 57.3688 46.2398 58.2334C46.1361 58.3582 46.0297 58.4804 45.9207 58.5982H52.5468C53.9531 58.5982 54.5683 57.8951 54.7441 56.5767L57.9433 26.2544H59.5781V23.4375H56.6847Z" fill="#E5841B"/>
</svg>
