<svg width="76" height="75" viewBox="0 0 76 75" fill="none" xmlns="http://www.w3.org/2000/svg">
<rect x="0.69873" width="75" height="75" rx="23.4359" fill="#DEEFEF"/>
<path d="M55.5706 54.375V46.875C55.5706 45.8804 55.1755 44.9266 54.4722 44.2234C53.769 43.5201 52.8151 43.125 51.8206 43.125H49.9456V37.5C49.9456 36.5054 49.5505 35.5516 48.8472 34.8484C48.144 34.1451 47.1901 33.75 46.1956 33.75H40.5706V30H36.8206V33.75H31.1956C29.1143 33.75 27.4456 35.4188 27.4456 37.5V43.125H25.5706C23.4893 43.125 21.8206 44.7938 21.8206 46.875V54.375H18.0706V58.125H59.3206V54.375M38.6956 28.125C39.6901 28.125 40.644 27.7299 41.3472 27.0267C42.0505 26.3234 42.4456 25.3696 42.4456 24.375C42.4456 23.6625 42.2581 23.0063 41.9018 22.4438L38.6956 16.875L35.4706 22.4438C35.1331 23.0063 34.9456 23.6625 34.9456 24.375C34.9456 25.3696 35.3407 26.3234 36.0439 27.0267C36.7472 27.7299 37.701 28.125 38.6956 28.125Z" fill="#3D757D"/>
</svg>
