<svg width="76" height="75" viewBox="0 0 76 75" fill="none" xmlns="http://www.w3.org/2000/svg">
<rect x="0.30127" width="75" height="75" rx="23.4359" fill="#E7EEF7"/>
<path d="M26.25 54.375C25.2188 54.375 24.3362 54.0081 23.6025 53.2744C22.8675 52.5394 22.5 51.6562 22.5 50.625V33.75C22.5 33.1562 22.6331 32.5938 22.8994 32.0625C23.1644 31.5313 23.5313 31.0937 24 30.75L35.25 22.3125C35.9062 21.8125 36.6562 21.5625 37.5 21.5625C38.3438 21.5625 39.0938 21.8125 39.75 22.3125L51 30.75C51.4688 31.0937 51.8363 31.5313 52.1025 32.0625C52.3675 32.5938 52.5 33.1562 52.5 33.75V50.625C52.5 51.6562 52.1331 52.5394 51.3994 53.2744C50.6644 54.0081 49.7812 54.375 48.75 54.375H26.25ZM33.75 41.25V47.8125C33.75 48.0625 33.8437 48.2812 34.0312 48.4688C34.2187 48.6562 34.4375 48.75 34.6875 48.75C34.9375 48.75 35.1563 48.6562 35.3438 48.4688C35.5313 48.2812 35.625 48.0625 35.625 47.8125V41.25C36.4062 41.25 37.07 40.9762 37.6163 40.4288C38.1638 39.8825 38.4375 39.2188 38.4375 38.4375V33.75C38.4375 33.5 38.3438 33.2812 38.1563 33.0937C37.9688 32.9062 37.75 32.8125 37.5 32.8125C37.25 32.8125 37.0312 32.9062 36.8437 33.0937C36.6562 33.2812 36.5625 33.5 36.5625 33.75V38.4375H35.625V33.75C35.625 33.5 35.5313 33.2812 35.3438 33.0937C35.1563 32.9062 34.9375 32.8125 34.6875 32.8125C34.4375 32.8125 34.2187 32.9062 34.0312 33.0937C33.8437 33.2812 33.75 33.5 33.75 33.75V38.4375H32.8125V33.75C32.8125 33.5 32.7188 33.2812 32.5313 33.0937C32.3438 32.9062 32.125 32.8125 31.875 32.8125C31.625 32.8125 31.4062 32.9062 31.2187 33.0937C31.0312 33.2812 30.9375 33.5 30.9375 33.75V38.4375C30.9375 39.2188 31.2112 39.8825 31.7587 40.4288C32.305 40.9762 32.9688 41.25 33.75 41.25ZM42.1875 48.75C42.4375 48.75 42.6562 48.6562 42.8438 48.4688C43.0312 48.2812 43.125 48.0625 43.125 47.8125V33.9375C43.125 33.6875 43.0312 33.4688 42.8438 33.2812C42.6562 33.0938 42.4375 33 42.1875 33C41.3125 33 40.625 33.3594 40.125 34.0781C39.625 34.7969 39.375 35.625 39.375 36.5625V41.25C39.375 41.5 39.4688 41.7188 39.6562 41.9062C39.8438 42.0938 40.0625 42.1875 40.3125 42.1875H41.25V47.8125C41.25 48.0625 41.3438 48.2812 41.5312 48.4688C41.7188 48.6562 41.9375 48.75 42.1875 48.75Z" fill="#6697CA"/>
</svg>
