<svg width="16" height="20" viewBox="0 0 16 20" fill="none" xmlns="http://www.w3.org/2000/svg">
<path d="M3.44825 10.6137C3.15035 11.4023 3.18539 12.2609 3.4132 12.9969C3.88633 14.5039 5.48098 15.1874 6.83029 15.31C8.42494 15.4677 10.0196 14.8895 11.0184 13.803C11.7895 12.9619 12.1575 11.7878 12.0523 10.6137H11.0009C10.8958 10.6137 10.8257 10.7364 10.8958 10.824L11.106 11.1044C11.1411 11.1569 11.1411 11.2095 11.106 11.2621C10.9834 11.4373 10.7556 11.7177 10.5628 11.928C9.54645 12.9619 8.10951 13.435 6.67258 13.3474C5.62117 13.2598 4.69242 12.9619 4.13166 11.9805C3.97395 11.7177 3.92138 11.3497 3.90386 11.2446C3.90386 11.2095 3.90386 11.1569 3.9389 11.1394L4.16671 10.859C4.25433 10.7539 4.20176 10.6312 4.04405 10.6312H3.44825V10.6137Z" fill="white"/>
<path d="M8.84551 1.88704C8.84551 0.97581 10.0546 1.27371 9.42379 3.23635C9.42379 3.23635 8.84551 2.6055 8.84551 1.88704ZM8.10952 7.61724C9.23103 6.58335 9.63407 5.00623 9.63407 5.00623C9.63407 5.00623 11.2462 6.70602 11.8245 7.54715C12.578 8.63361 12.9986 9.45722 13.1913 10.1231C13.7872 11.9981 13.4367 14.136 12.0874 15.608C10.7556 17.08 8.67027 17.7459 6.72516 17.5531C4.78004 17.3603 2.8174 16.3615 2.20408 14.3989C1.80103 13.0671 1.97627 11.6126 2.57207 10.3684C4.009 7.35439 7.44362 5.16394 7.81162 4.88357C7.93428 4.79595 7.93428 4.72585 7.89923 4.67328C7.86419 4.63824 7.81162 4.62071 7.68895 4.67328C7.63638 4.70833 7.37353 4.86604 7.32096 4.88357C6.54992 5.37423 6.25202 5.58451 5.67374 6.00507C4.76252 6.67097 3.92139 7.38944 3.15035 8.21304C2.69474 8.72123 2.23912 9.31703 1.83608 10.0004C0.889809 11.6477 0.556862 13.6278 1.20523 15.4328C2.06389 17.851 4.49966 19.1828 6.97049 19.358C9.38874 19.5157 11.8771 18.5695 13.4542 16.712C15.1014 14.7493 15.5045 12.0332 14.6458 9.63245C14.3479 8.84389 13.9449 8.1079 13.5068 7.45953C12.578 6.11022 11.1411 4.88357 10.0546 3.7971C10.1948 3.02607 10.3701 2.36017 10.3175 1.85199C10.2649 1.27371 9.91444 0.607815 9.19598 0.625339C8.51256 0.660386 8.21466 1.25619 8.17961 1.83446C8.10952 3.04359 9.12588 4.39291 9.12588 4.39291C9.12588 4.39291 8.81046 5.7247 7.89923 7.09154C7.32096 7.95019 7.86419 7.86257 8.10952 7.61724Z" fill="white"/>
</svg>
