<svg width="20" height="20" viewBox="0 0 20 20" fill="none" xmlns="http://www.w3.org/2000/svg">
<rect width="20" height="20" rx="2" fill="white"/>
<path d="M5.9586 10.491C5.72028 11.1218 5.74831 11.8087 5.93056 12.3975C6.30907 13.6032 7.58478 14.1499 8.66423 14.248C9.93995 14.3742 11.2157 13.9116 12.0147 13.0424C12.6316 12.3695 12.926 11.4302 12.8419 10.491H12.0007C11.9166 10.491 11.8605 10.5891 11.9166 10.6592L12.0848 10.8835C12.1129 10.9256 12.1129 10.9676 12.0848 11.0097C11.9867 11.1499 11.8045 11.3742 11.6502 11.5424C10.8372 12.3695 9.68761 12.748 8.53806 12.6779C7.69693 12.6078 6.95393 12.3695 6.50533 11.5844C6.37916 11.3742 6.33711 11.0798 6.32309 10.9956C6.32309 10.9676 6.32309 10.9256 6.35112 10.9115L6.53337 10.6872C6.60346 10.6031 6.56141 10.505 6.43524 10.505H5.9586V10.491Z" fill="#E2231A"/>
<path d="M10.2764 3.50963C10.2764 2.78065 11.2437 3.01897 10.739 4.58908C10.739 4.58908 10.2764 4.0844 10.2764 3.50963ZM9.68759 8.09379C10.5848 7.26668 10.9072 6.00498 10.9072 6.00498C10.9072 6.00498 12.197 7.36481 12.6596 8.03772C13.2624 8.90689 13.5988 9.56577 13.7531 10.0985C14.2297 11.5985 13.9493 13.3088 12.8699 14.4864C11.8044 15.664 10.1362 16.1967 8.5801 16.0425C7.02401 15.8883 5.4539 15.0892 4.96324 13.5191C4.6408 12.4537 4.78099 11.2901 5.25763 10.2948C6.40718 7.88351 9.15487 6.13115 9.44927 5.90685C9.5474 5.83676 9.5474 5.78068 9.51936 5.73863C9.49132 5.71059 9.44927 5.69657 9.35114 5.73863C9.30908 5.76666 9.0988 5.89283 9.05674 5.90685C8.43991 6.29938 8.20159 6.46761 7.73897 6.80406C7.00999 7.33678 6.33708 7.91155 5.72025 8.57043C5.35576 8.97698 4.99127 9.45362 4.66884 10.0004C3.91182 11.3181 3.64546 12.9023 4.16416 14.3462C4.85109 16.2808 6.79971 17.3462 8.77636 17.4864C10.711 17.6126 12.7016 16.8556 13.9633 15.3696C15.2811 13.7995 15.6035 11.6265 14.9166 9.70596C14.6783 9.07511 14.3559 8.48632 14.0054 7.96762C13.2624 6.88817 12.1129 5.90685 11.2437 5.03768C11.3558 4.42085 11.496 3.88814 11.454 3.48159C11.4119 3.01897 11.1315 2.48625 10.5568 2.50027C10.01 2.52831 9.7717 3.00495 9.74367 3.46757C9.68759 4.43487 10.5007 5.51432 10.5007 5.51432C10.5007 5.51432 10.2483 6.57976 9.51936 7.67323C9.05674 8.36015 9.49133 8.29006 9.68759 8.09379Z" fill="#E2231A"/>
</svg>
