<svg width="20" height="20" viewBox="0 0 20 20" fill="none" xmlns="http://www.w3.org/2000/svg">
<path d="M7.89832 4.35453L5.02647 1.48268C4.75989 1.21611 4.31711 1.22668 4.0375 1.50629L2.03777 3.50602C-0.493664 6.03745 3.32836 10.8721 6.21605 13.7598C9.08644 16.6301 13.9626 20.4937 16.494 17.9623L18.4938 15.9625C18.7734 15.6829 18.7839 15.2401 18.5174 14.9736L15.6455 12.1017C15.3789 11.8351 14.9362 11.8457 14.6565 12.1253L12.6568 14.125C12.6568 14.125 11.6933 14.1232 8.75963 11.2404C5.82594 8.35765 5.87501 7.34321 5.87501 7.34321L7.87471 5.34351C8.15433 5.06389 8.1649 4.62111 7.89832 4.35453Z" stroke="black" stroke-linecap="round" stroke-linejoin="round"/>
</svg>
