<svg width="20" height="20" viewBox="0 0 20 20" fill="none" xmlns="http://www.w3.org/2000/svg">
<path d="M14.6339 4.88462C14.6339 7.30617 12.6708 9.26923 10.2492 9.26923C7.82769 9.26923 5.86463 7.30617 5.86463 4.88462C5.86463 2.46306 7.82769 0.5 10.2492 0.5C12.6708 0.5 14.6339 2.46306 14.6339 4.88462Z" stroke="white"/>
<path d="M10.2492 19.5C14.5925 19.5 17.0949 18.3797 18.2557 17.6586C18.7989 17.3212 19.0666 16.6999 19.0114 16.0563C18.9359 15.1773 18.6288 14.2994 18.3161 13.6031C17.9055 12.6888 16.9551 12.1923 15.9529 12.1923H4.54561C3.54337 12.1923 2.59296 12.6888 2.18239 13.6031C1.86969 14.2994 1.56257 15.1773 1.48713 16.0563C1.43189 16.6999 1.69961 17.3212 2.24278 17.6586C3.40358 18.3797 5.90594 19.5 10.2492 19.5Z" stroke="white"/>
</svg>
