<svg width="407" height="320" viewBox="0 0 407 320" fill="none" xmlns="http://www.w3.org/2000/svg">
<rect width="407" height="320" fill="#F4F4F4"/>
<path d="M134.15 154.39C134.25 152.39 134.95 150.85 136.25 149.77C137.57 148.67 139.3 148.12 141.44 148.12C142.9 148.12 144.15 148.38 145.19 148.9C146.23 149.4 147.01 150.09 147.53 150.97C148.07 151.83 148.34 152.81 148.34 153.91C148.34 155.17 148.01 156.24 147.35 157.12C146.71 157.98 145.94 158.56 145.04 158.86V158.98C146.2 159.34 147.1 159.98 147.74 160.9C148.4 161.82 148.73 163 148.73 164.44C148.73 165.64 148.45 166.71 147.89 167.65C147.35 168.59 146.54 169.33 145.46 169.87C144.4 170.39 143.12 170.65 141.62 170.65C139.36 170.65 137.52 170.08 136.1 168.94C134.68 167.8 133.93 166.12 133.85 163.9H137.93C137.97 164.88 138.3 165.67 138.92 166.27C139.56 166.85 140.43 167.14 141.53 167.14C142.55 167.14 143.33 166.86 143.87 166.3C144.43 165.72 144.71 164.98 144.71 164.08C144.71 162.88 144.33 162.02 143.57 161.5C142.81 160.98 141.63 160.72 140.03 160.72H139.16V157.27H140.03C142.87 157.27 144.29 156.32 144.29 154.42C144.29 153.56 144.03 152.89 143.51 152.41C143.01 151.93 142.28 151.69 141.32 151.69C140.38 151.69 139.65 151.95 139.13 152.47C138.63 152.97 138.34 153.61 138.26 154.39H134.15ZM152.049 159.28C152.049 155.82 152.669 153.11 153.909 151.15C155.169 149.19 157.249 148.21 160.149 148.21C163.049 148.21 165.119 149.19 166.359 151.15C167.619 153.11 168.249 155.82 168.249 159.28C168.249 162.76 167.619 165.49 166.359 167.47C165.119 169.45 163.049 170.44 160.149 170.44C157.249 170.44 155.169 169.45 153.909 167.47C152.669 165.49 152.049 162.76 152.049 159.28ZM164.109 159.28C164.109 157.8 164.009 156.56 163.809 155.56C163.629 154.54 163.249 153.71 162.669 153.07C162.109 152.43 161.269 152.11 160.149 152.11C159.029 152.11 158.179 152.43 157.599 153.07C157.039 153.71 156.659 154.54 156.459 155.56C156.279 156.56 156.189 157.8 156.189 159.28C156.189 160.8 156.279 162.08 156.459 163.12C156.639 164.14 157.019 164.97 157.599 165.61C158.179 166.23 159.029 166.54 160.149 166.54C161.269 166.54 162.119 166.23 162.699 165.61C163.279 164.97 163.659 164.14 163.839 163.12C164.019 162.08 164.109 160.8 164.109 159.28ZM171.444 159.28C171.444 155.82 172.064 153.11 173.304 151.15C174.564 149.19 176.644 148.21 179.544 148.21C182.444 148.21 184.514 149.19 185.754 151.15C187.014 153.11 187.644 155.82 187.644 159.28C187.644 162.76 187.014 165.49 185.754 167.47C184.514 169.45 182.444 170.44 179.544 170.44C176.644 170.44 174.564 169.45 173.304 167.47C172.064 165.49 171.444 162.76 171.444 159.28ZM183.504 159.28C183.504 157.8 183.404 156.56 183.204 155.56C183.024 154.54 182.644 153.71 182.064 153.07C181.504 152.43 180.664 152.11 179.544 152.11C178.424 152.11 177.574 152.43 176.994 153.07C176.434 153.71 176.054 154.54 175.854 155.56C175.674 156.56 175.584 157.8 175.584 159.28C175.584 160.8 175.674 162.08 175.854 163.12C176.034 164.14 176.414 164.97 176.994 165.61C177.574 166.23 178.424 166.54 179.544 166.54C180.664 166.54 181.514 166.23 182.094 165.61C182.674 164.97 183.054 164.14 183.234 163.12C183.414 162.08 183.504 160.8 183.504 159.28ZM207.646 170.5L204.226 165.34L201.196 170.5H196.696L202.126 162.16L196.636 153.88H201.376L204.766 159.01L207.826 153.88H212.326L206.866 162.16L212.386 170.5H207.646ZM221.396 154.39C221.496 152.39 222.196 150.85 223.496 149.77C224.816 148.67 226.546 148.12 228.686 148.12C230.146 148.12 231.396 148.38 232.436 148.9C233.476 149.4 234.256 150.09 234.776 150.97C235.316 151.83 235.586 152.81 235.586 153.91C235.586 155.17 235.256 156.24 234.596 157.12C233.956 157.98 233.186 158.56 232.286 158.86V158.98C233.446 159.34 234.346 159.98 234.986 160.9C235.646 161.82 235.976 163 235.976 164.44C235.976 165.64 235.696 166.71 235.136 167.65C234.596 168.59 233.786 169.33 232.706 169.87C231.646 170.39 230.366 170.65 228.866 170.65C226.606 170.65 224.766 170.08 223.346 168.94C221.926 167.8 221.176 166.12 221.096 163.9H225.176C225.216 164.88 225.546 165.67 226.166 166.27C226.806 166.85 227.676 167.14 228.776 167.14C229.796 167.14 230.576 166.86 231.116 166.3C231.676 165.72 231.956 164.98 231.956 164.08C231.956 162.88 231.576 162.02 230.816 161.5C230.056 160.98 228.876 160.72 227.276 160.72H226.406V157.27H227.276C230.116 157.27 231.536 156.32 231.536 154.42C231.536 153.56 231.276 152.89 230.756 152.41C230.256 151.93 229.526 151.69 228.566 151.69C227.626 151.69 226.896 151.95 226.376 152.47C225.876 152.97 225.586 153.61 225.506 154.39H221.396ZM240.615 165.76C242.535 164.16 244.065 162.83 245.205 161.77C246.345 160.69 247.295 159.57 248.055 158.41C248.815 157.25 249.195 156.11 249.195 154.99C249.195 153.97 248.955 153.17 248.475 152.59C247.995 152.01 247.255 151.72 246.255 151.72C245.255 151.72 244.485 152.06 243.945 152.74C243.405 153.4 243.125 154.31 243.105 155.47H239.025C239.105 153.07 239.815 151.25 241.155 150.01C242.515 148.77 244.235 148.15 246.315 148.15C248.595 148.15 250.345 148.76 251.565 149.98C252.785 151.18 253.395 152.77 253.395 154.75C253.395 156.31 252.975 157.8 252.135 159.22C251.295 160.64 250.335 161.88 249.255 162.94C248.175 163.98 246.765 165.24 245.025 166.72H253.875V170.2H239.055V167.08L240.615 165.76ZM256.522 159.28C256.522 155.82 257.142 153.11 258.382 151.15C259.642 149.19 261.722 148.21 264.622 148.21C267.522 148.21 269.592 149.19 270.832 151.15C272.092 153.11 272.722 155.82 272.722 159.28C272.722 162.76 272.092 165.49 270.832 167.47C269.592 169.45 267.522 170.44 264.622 170.44C261.722 170.44 259.642 169.45 258.382 167.47C257.142 165.49 256.522 162.76 256.522 159.28ZM268.582 159.28C268.582 157.8 268.482 156.56 268.282 155.56C268.102 154.54 267.722 153.71 267.142 153.07C266.582 152.43 265.742 152.11 264.622 152.11C263.502 152.11 262.652 152.43 262.072 153.07C261.512 153.71 261.132 154.54 260.932 155.56C260.752 156.56 260.662 157.8 260.662 159.28C260.662 160.8 260.752 162.08 260.932 163.12C261.112 164.14 261.492 164.97 262.072 165.61C262.652 166.23 263.502 166.54 264.622 166.54C265.742 166.54 266.592 166.23 267.172 165.61C267.752 164.97 268.132 164.14 268.312 163.12C268.492 162.08 268.582 160.8 268.582 159.28Z" fill="#C1C1C1"/>
</svg>
