<svg width="191" height="100" viewBox="0 0 191 100" fill="none" xmlns="http://www.w3.org/2000/svg">
<path d="M12.1094 95.2338H6.91964L6.0325 99.6252H3.90338L6.12122 88.8021H13.6175L13.2183 90.7982H7.85113L7.31885 93.2378H12.5086L12.1094 95.2338Z" fill="#003660"/>
<path d="M24.7954 93.637C24.7954 96.9638 22.3558 99.8026 18.9403 99.8026C16.0571 99.8026 13.8837 97.8065 13.8837 94.7459C13.8837 91.4192 16.3233 88.6247 19.7388 88.6247C22.6663 88.6247 24.7954 90.6207 24.7954 93.637ZM16.0571 94.6129C16.0571 96.5202 17.2991 97.7622 19.0734 97.7622C21.1582 97.7622 22.6219 95.9436 22.6219 93.8144C22.6219 91.9071 21.3356 90.6651 19.6057 90.6651C17.5209 90.6651 16.0571 92.4837 16.0571 94.6129Z" fill="#003660"/>
<path d="M37.1709 93.637C37.1709 96.9638 34.7313 99.8026 31.3158 99.8026C28.3883 99.8026 26.2592 97.8065 26.2592 94.7459C26.2592 91.4192 28.6988 88.6247 32.1142 88.6247C35.0418 88.6247 37.1709 90.6207 37.1709 93.637ZM28.4326 94.6129C28.4326 96.5202 29.6746 97.7622 31.4489 97.7622C33.5337 97.7622 34.9974 95.9436 34.9974 93.8144C34.9974 91.9071 33.7554 90.6651 31.9812 90.6651C29.8964 90.6651 28.4326 92.4837 28.4326 94.6129Z" fill="#003660"/>
<path d="M43.647 88.8021C46.6189 88.8021 48.4375 90.7095 48.4375 93.3709C48.4375 96.8307 46.0866 99.6252 42.0058 99.6252H37.7032L39.921 88.8021H43.647ZM41.6953 90.7982L40.2759 97.5848H42.3163C44.8003 97.5848 46.264 95.8548 46.264 93.5927C46.264 91.9515 45.3769 90.7982 43.4252 90.7982H41.6953Z" fill="#003660"/>
<path d="M56.4217 95.6774L55.6233 99.6252H53.4942L55.712 88.8021H59.438C61.7002 88.8021 62.8978 90.0885 62.8978 91.8184C62.8978 94.1249 61.301 95.6774 58.5509 95.6774H56.4217ZM57.4419 90.7982L56.821 93.7257H58.6396C59.9703 93.7257 60.7243 93.1047 60.7243 92.0845C60.7243 91.2861 60.1921 90.8425 59.1719 90.8425H57.4419V90.7982Z" fill="#003660"/>
<path d="M69.1521 88.8021C71.4143 88.8021 72.6119 90.0885 72.6119 91.7297C72.6119 93.2822 71.6804 95.1451 68.7529 95.3226L71.6361 99.6252H69.1965L66.4907 95.3226H65.9584L65.0713 99.6252H62.9865L65.2043 88.8021H69.1521ZM66.8899 90.7982L66.3576 93.4152H68.5755C70.0836 93.4152 70.4828 92.6612 70.4828 91.9515C70.4828 91.2417 69.9505 90.7982 68.9303 90.7982H66.8899Z" fill="#003660"/>
<path d="M84.6326 93.637C84.6326 96.9638 82.193 99.8026 78.7775 99.8026C75.85 99.8026 73.7208 97.8065 73.7208 94.7459C73.7208 91.4192 76.1604 88.6247 79.5759 88.6247C82.4591 88.6247 84.6326 90.6207 84.6326 93.637ZM75.8499 94.6129C75.8499 96.5202 77.0919 97.7622 78.8662 97.7622C80.951 97.7622 82.4147 95.9436 82.4147 93.8144C82.4147 91.9071 81.1728 90.6651 79.3985 90.6651C77.3137 90.6651 75.8499 92.4837 75.8499 94.6129Z" fill="#003660"/>
<path d="M93.3709 95.2338H88.1812L87.294 99.6252H85.1649L87.3828 88.8021H94.879L94.4798 90.7982H89.1127L88.6247 93.2378H93.7701L93.3709 95.2338Z" fill="#003660"/>
<path d="M102.73 95.1451H97.4517L96.9638 97.6291H102.508L102.065 99.6252H94.4354L96.6533 88.8021H104.238L103.839 90.7538H98.3388L97.8509 93.1491H103.129L102.73 95.1451Z" fill="#003660"/>
<path d="M112.489 91.5966C111.424 90.8425 110.226 90.6208 109.339 90.6208C107.964 90.6208 107.432 91.2861 107.432 91.9515C107.432 92.7055 108.142 92.9717 109.073 93.1491L109.694 93.2822C111.468 93.637 112.755 94.4798 112.755 96.1654C112.755 98.3832 110.936 99.8026 108.319 99.8026C107.033 99.8026 105.081 99.4034 103.883 98.2945L105.081 96.5646C106.057 97.4961 107.565 97.8066 108.452 97.8066C109.605 97.8066 110.537 97.3186 110.537 96.4758C110.537 95.8105 109.916 95.5 108.718 95.2339L108.053 95.1008C106.367 94.7903 105.214 93.8144 105.214 92.2176C105.214 90.2659 106.678 88.5804 109.428 88.5804C110.67 88.5804 112.178 88.8021 113.598 89.8667L112.489 91.5966Z" fill="#003660"/>
<path d="M122.247 91.5966C121.227 90.8425 119.985 90.6208 119.098 90.6208C117.723 90.6208 117.19 91.2861 117.19 91.9515C117.19 92.7055 117.9 92.9717 118.832 93.1491L119.453 93.2822C121.227 93.637 122.513 94.4798 122.513 96.1654C122.513 98.3832 120.695 99.8026 118.078 99.8026C116.791 99.8026 114.884 99.4034 113.642 98.2945L114.84 96.5646C115.815 97.4961 117.324 97.8066 118.211 97.8066C119.364 97.8066 120.295 97.3186 120.295 96.4758C120.295 95.8105 119.674 95.5 118.477 95.2339L117.811 95.1008C116.126 94.7903 114.973 93.8144 114.973 92.2176C114.973 90.2659 116.436 88.5804 119.186 88.5804C120.428 88.5804 121.937 88.8021 123.4 89.8667L122.247 91.5966Z" fill="#003660"/>
<path d="M125.84 99.6252H123.711L125.973 88.8021H128.058L125.84 99.6252Z" fill="#003660"/>
<path d="M139.546 93.637C139.546 96.9638 137.107 99.8026 133.691 99.8026C130.764 99.8026 128.634 97.8065 128.634 94.7459C128.634 91.4192 131.074 88.6247 134.49 88.6247C137.417 88.6247 139.546 90.6207 139.546 93.637ZM130.808 94.6129C130.808 96.5202 132.05 97.7622 133.824 97.7622C135.909 97.7622 137.373 95.9436 137.373 93.8144C137.373 91.9071 136.131 90.6651 134.356 90.6651C132.272 90.6651 130.808 92.4837 130.808 94.6129Z" fill="#003660"/>
<path d="M149.393 99.6252H147.442L143.76 92.1732L142.252 99.6252H140.123L142.341 88.8021H144.337L147.974 96.2541L149.482 88.8021H151.611L149.393 99.6252Z" fill="#003660"/>
<path d="M161.325 99.6252H159.196L158.797 97.0968H154.45L153.031 99.6252H150.813L157.023 88.8021H159.551L161.325 99.6252ZM155.559 95.1008H158.487L157.866 90.9756L155.559 95.1008Z" fill="#003660"/>
<path d="M165.096 97.5848H170.418L170.019 99.6252H162.567L164.785 88.8021H166.914L165.096 97.5848Z" fill="#003660"/>
<path d="M180.133 91.5966C179.112 90.8425 177.87 90.6208 176.983 90.6208C175.608 90.6208 175.076 91.2861 175.076 91.9515C175.076 92.7055 175.786 92.9717 176.717 93.1491L177.338 93.2822C179.112 93.637 180.399 94.4798 180.399 96.1654C180.399 98.3832 178.58 99.8026 175.963 99.8026C174.677 99.8026 172.725 99.4034 171.527 98.2945L172.725 96.5646C173.701 97.4961 175.209 97.8066 176.096 97.8066C177.249 97.8066 178.181 97.3186 178.181 96.4758C178.181 95.8105 177.56 95.5 176.362 95.2339L175.697 95.1008C174.011 94.7903 172.858 93.8144 172.858 92.2176C172.858 90.2659 174.322 88.5804 177.072 88.5804C178.314 88.5804 179.822 88.8021 181.286 89.8667L180.133 91.5966Z" fill="#003660"/>
<path d="M156.18 38.5016C148.905 38.5016 144.292 42.6711 143.272 48.7037L138.748 75.362H173.568C180.842 75.362 185.411 71.2369 186.476 65.16L191 38.5016H156.18Z" fill="#003660"/>
<path d="M153.474 66.1802H148.639L151.744 47.6835H164.785L164.031 52.1635H155.869L153.474 66.1802Z" fill="white"/>
<path d="M158.176 60.1477L156.18 55.712H163.41L162.656 60.1477H158.176Z" fill="white"/>
<path d="M180.044 53.8491C179.423 57.575 176.584 60.1477 172.104 60.1477H170.285L171.039 55.7564H172.725C173.923 55.7564 174.943 55.091 175.12 53.8934C175.342 52.6958 174.499 52.2522 173.302 52.2522H170.241V52.2966L167.846 66.3133H162.967L166.116 47.7722H174.1C178.669 47.6391 180.665 50.0344 180.044 53.8491Z" fill="white"/>
<path d="M136.885 59.6598C137.506 56.7766 136.707 54.2039 134.711 52.3409C133.913 51.5868 133.026 50.9659 131.961 50.5666C130.63 50.0344 129.167 49.8126 127.57 49.8126C126.771 49.8126 125.929 49.8569 125.042 49.99C123.179 50.2561 121.36 50.9215 119.674 51.9417L118.432 52.6958L118.699 51.2764C119.009 49.5464 119.32 47.8609 119.586 46.3971L120.029 43.9131C120.207 42.9373 119.941 41.9614 119.32 41.2517C118.699 40.4977 117.811 40.0985 116.836 40.0985H109.738C108.142 40.0985 106.811 41.2074 106.545 42.7599L104.637 53.1837L103.795 52.5627C101.799 51.0989 99.3147 50.3005 96.6976 50.3005H96.2984C93.9918 50.3449 91.5966 50.9659 89.3787 52.1635L88.8908 52.4296L88.536 51.9861C88.3142 51.6756 88.048 51.3651 87.7375 51.1876C86.6286 50.4336 85.0318 50.2561 83.9229 50.2561C83.0357 50.2561 82.1042 50.3892 81.2171 50.6997H72.2127C70.9264 50.6997 69.7287 51.4981 69.2408 52.6958L68.8859 53.4942L68.2206 52.9175C66.535 51.4981 64.4946 50.6997 62.3212 50.611C62.1881 50.611 62.055 50.611 61.9219 50.611C61.8776 50.611 61.8332 50.611 61.7889 50.611C61.7445 50.611 61.6558 50.611 61.6114 50.611L59.6154 50.6997L61.1679 49.4134C62.2324 48.5262 63.2083 47.5947 64.0511 46.6189C68.8859 40.8525 70.261 32.7796 67.644 25.5051C66.8455 23.376 65.781 21.3356 64.3616 19.2508C62.4099 16.4563 59.7485 13.8836 57.3532 11.6215L57.1758 11.444C57.0427 11.311 56.8653 11.1779 56.7322 11.0448L56.4661 10.7787L56.5548 10.4238C56.8209 9.00441 56.9983 7.80677 56.8653 6.60914C56.5104 3.06061 54.0264 0.57663 50.8771 0.57663C50.8328 0.57663 50.744 0.57663 50.6997 0.57663H50.6553C47.506 0.7097 45.1995 3.23803 44.9777 6.69786C44.889 7.89549 45.1107 9.18183 45.51 10.5569L45.6874 11.0448L44.889 11.5327C44.6672 11.6658 44.401 11.7989 44.3567 11.8432C42.3606 13.1296 41.5622 13.6619 40.0541 14.7708C37.2596 16.6781 34.9087 18.6742 32.8683 20.8476C31.4489 22.4001 30.2069 24.13 29.1423 25.9487C26.5696 30.4287 25.6825 35.4854 26.6584 40.1872L26.9245 41.4735L25.7269 40.9412C23.4203 39.921 20.5815 39.3 17.9201 39.3C14.9482 39.3 12.1537 40.0541 9.84716 41.4292C6.60912 43.4252 4.25821 46.752 3.59286 50.3892C3.01623 53.4942 3.72593 56.5104 5.54456 58.8613C5.89941 59.3493 6.34298 59.7928 6.78655 60.2808C6.91962 60.3695 7.05269 60.5469 7.23011 60.68C7.27447 60.7243 7.31883 60.7687 7.31883 60.7687C7.36318 60.813 7.40754 60.8574 7.4519 60.9018C8.02853 61.4784 8.20596 62.0107 8.20596 62.0107C7.76239 61.7445 7.36318 61.3453 6.56476 60.9905C5.85505 60.7243 5.05663 60.7243 4.30257 61.0348C3.72593 61.2566 2.66137 62.1437 2.30652 62.6317C0.0886817 65.5149 -0.842809 69.9949 2.08473 73.4547C4.08079 75.85 6.60912 76.8702 7.89546 77.3137H7.93982H7.98418C8.29467 77.4025 8.56081 77.4468 8.7826 77.5355L8.87131 77.5799C10.2464 77.8904 11.6658 78.1122 13.0408 78.2009C13.2626 78.2009 13.4844 78.2009 13.7062 78.2009H13.7505C17.8314 78.2009 21.6904 76.6927 24.3962 74.0757L24.8841 73.5878L25.3277 74.1201C25.3277 74.1644 25.372 74.1644 25.372 74.2088L25.4164 74.2531C27.6342 76.8702 30.8722 78.3339 34.5095 78.3783H34.6869C34.7313 78.3783 34.8643 78.3783 34.8643 78.3783C37.1265 78.3339 39.5218 77.713 41.6509 76.604L42.8486 75.983L41.4291 83.9672C41.2517 84.9431 41.5178 85.8746 42.1388 86.6287C42.7598 87.3827 43.6913 87.7819 44.6228 87.7819H51.4981C53.095 87.7819 54.4257 86.673 54.6918 85.1205L55.9338 78.3339L56.5548 78.4227C57.1314 78.5114 57.7081 78.5557 58.2403 78.5557C59.8815 78.5557 61.5227 78.2452 62.8534 77.6686C63.5631 77.3581 64.2728 77.0033 64.9382 76.5597L65.4261 76.2492L65.8253 76.6927C66.4463 77.4025 67.3335 77.846 68.3093 77.846H75.3177C76.8702 77.846 78.2452 76.7371 78.5114 75.1846L80.2413 65.781C80.2413 65.781 79.5759 70.5272 83.1688 74.5193C83.8785 75.3177 85.3866 76.471 85.3866 76.471H83.0357C82.1042 76.471 81.3058 77.1363 81.1284 78.0234L79.7533 84.9875C79.6203 85.5641 79.7977 86.1407 80.1525 86.5843C80.5074 87.0279 81.084 87.294 81.6607 87.294H84.5439C85.6084 87.294 86.5843 87.0279 87.4714 86.5399L87.8263 86.3182L88.1811 86.5399C88.8908 87.0722 89.8223 87.3384 90.7982 87.3384C91.1974 87.3384 105.392 87.3384 105.392 87.3384C106.367 87.3384 107.21 87.1166 107.964 86.7174L108.408 86.4512L108.541 86.5843L108.763 86.7617C109.117 87.0722 109.561 87.3384 110.049 87.3384C110.049 87.3384 125.796 87.3384 126.239 87.3384C128.102 87.3384 129.743 86.5843 130.764 85.2536C131.695 84.0116 132.139 82.4148 132.094 80.6405C132.094 80.5074 132.05 80.33 132.05 80.1526L131.872 79.2211L132.848 79.3098C132.893 79.3098 132.937 79.3098 132.981 79.3098C133.691 79.3098 134.356 79.0437 134.889 78.5114C135.421 78.0234 135.687 77.3137 135.687 76.604C135.687 75.4951 134.933 74.4305 133.869 74.0313L133.336 73.8539L134.312 68.0432C134.445 67.3335 134.312 66.5794 134.002 65.9141L133.78 65.5149L134.09 65.16C135.865 63.2083 136.574 61.0792 136.885 59.6598Z" fill="white"/>
<path d="M83.0801 78.2452H85.2092C87.1166 78.2452 88.2698 79.2654 88.3142 81.0841C88.4029 83.1688 87.1609 85.2092 84.5882 85.2092H81.7494L83.0801 78.2452ZM84.4995 84.1003C86.3181 84.1003 86.7617 82.3261 86.7617 81.0841C86.7173 80.1526 86.3625 79.3542 85.2536 79.3542H84.4551L83.5237 84.1003H84.4995Z" fill="#E2231A"/>
<path d="M88.536 83.1244C88.4916 81.4389 89.4675 79.8864 91.1974 79.8864C92.4394 79.8864 93.1047 80.6405 93.1491 81.7494C93.1491 82.1042 93.1047 82.5035 93.016 82.9027H89.9554V83.0801C89.9998 83.9229 90.3546 84.2334 90.9756 84.2334C91.4635 84.2334 91.8627 84.1003 92.262 83.8785H92.7499L92.5725 84.8544C92.2176 85.0761 91.641 85.2536 90.8869 85.2536C89.4231 85.2536 88.5804 84.5439 88.536 83.1244ZM90.0441 82.0599H91.8627C91.9071 81.9268 91.9071 81.7938 91.9071 81.6607C91.9071 81.1284 91.5966 80.8179 91.153 80.8179C90.5764 80.8179 90.1772 81.3058 90.0441 82.0599Z" fill="#E2231A"/>
<path d="M93.1047 84.7657L93.2822 83.7898H93.7701C93.9919 84.056 94.3911 84.2334 94.9234 84.2334C95.3669 84.2334 95.7661 84.1003 95.7218 83.7455C95.7218 83.4793 95.5 83.3463 95.0121 83.1688C94.1249 82.8583 93.637 82.5035 93.5927 81.7051C93.5483 80.6405 94.3467 79.9308 95.6331 79.9308C96.4315 79.9308 96.9638 80.1526 97.3186 80.4187L97.1412 81.3502H96.6976C96.4758 81.1284 96.0766 80.951 95.6331 80.951C95.1452 80.951 94.879 81.1284 94.879 81.4389C94.879 81.6607 95.0564 81.7938 95.6331 81.9712C96.4315 82.2373 97.0081 82.5478 97.0525 83.3906C97.0968 84.4995 96.2541 85.2092 94.879 85.2092C93.9919 85.2536 93.4152 84.9875 93.1047 84.7657Z" fill="#E2231A"/>
<path d="M100.778 84.5439C100.424 84.9874 99.9357 85.2536 99.3147 85.2536C98.3832 85.2536 97.6291 84.7213 97.5848 83.3462C97.5404 81.3945 98.6493 79.8864 100.246 79.8864C100.823 79.8864 101.222 80.0638 101.488 80.3743L101.887 78.2009H102.775C103.129 78.2009 103.307 78.3339 103.174 79.0436L101.976 85.1649H101.621C101.089 85.2092 100.823 84.9431 100.778 84.5439ZM100.823 83.8785L101.311 81.3058C101.178 81.1728 100.912 80.9953 100.512 80.9953C99.5365 80.9953 99.0042 82.0155 99.0042 83.3019C99.0042 83.9672 99.226 84.2777 99.8026 84.2777C100.113 84.2777 100.468 84.1447 100.823 83.8785Z" fill="#E2231A"/>
<path d="M103.129 83.1244C103.085 81.4389 104.061 79.8864 105.791 79.8864C107.033 79.8864 107.698 80.6405 107.742 81.7494C107.742 82.1042 107.698 82.5035 107.609 82.9027H104.549V83.0801C104.593 83.9229 104.948 84.2334 105.613 84.2334C106.101 84.2334 106.5 84.1003 106.855 83.8785H107.299L107.121 84.8987C106.767 85.1205 106.19 85.2979 105.436 85.2979C104.016 85.2536 103.174 84.5439 103.129 83.1244ZM104.637 82.0599H106.456C106.456 81.9268 106.5 81.7938 106.456 81.6607C106.456 81.1284 106.146 80.8179 105.702 80.8179C105.17 80.8179 104.771 81.3058 104.637 82.0599Z" fill="#E2231A"/>
<path d="M111.158 79.9308L110.271 80.3744H109.872L110.049 79.2654L112.001 78.2452H113.065L111.69 85.2092H110.138L111.158 79.9308Z" fill="#E2231A"/>
<path d="M113.065 84.8544L113.287 83.8342H113.864C114.085 84.056 114.44 84.189 114.928 84.189C115.638 84.189 116.215 83.9229 116.569 83.4793C116.836 83.1245 117.057 82.6365 117.146 82.1486C116.747 82.5035 116.17 82.6809 115.461 82.6809C114.307 82.6809 113.509 82.0155 113.509 80.9066C113.464 79.3541 114.662 78.2009 116.259 78.2009C117.678 78.2009 118.743 79.088 118.787 80.5961C118.832 81.9268 118.521 83.0801 117.856 83.9672C117.235 84.81 116.215 85.2979 114.884 85.2979C114.041 85.2979 113.509 85.1205 113.065 84.8544ZM117.19 81.3058C117.19 81.0397 117.235 80.7736 117.19 80.4631C117.19 79.7533 116.924 79.1767 116.17 79.1767C115.372 79.1767 114.84 79.7534 114.884 80.7292C114.928 81.3058 115.283 81.6163 115.948 81.6163C116.392 81.6163 116.88 81.4833 117.19 81.3058Z" fill="#E2231A"/>
<path d="M124.509 84.8544L124.731 83.8342H125.308C125.574 84.056 125.884 84.189 126.372 84.189C127.082 84.189 127.659 83.9229 128.013 83.4793C128.324 83.1245 128.501 82.6366 128.59 82.1043C128.191 82.4591 127.614 82.6366 126.949 82.6366C125.796 82.6366 124.997 81.9712 124.997 80.8623C124.953 79.3098 126.106 78.1565 127.747 78.1565C129.167 78.1565 130.231 79.0437 130.276 80.5518C130.32 81.8825 130.01 83.0358 129.344 83.9229C128.723 84.7657 127.703 85.2536 126.372 85.2536C125.485 85.298 124.953 85.1205 124.509 84.8544ZM128.634 81.3059C128.679 81.0397 128.679 80.7736 128.634 80.4631C128.634 79.7977 128.368 79.1767 127.614 79.1767C126.816 79.1767 126.284 79.7534 126.328 80.7292C126.328 81.3059 126.683 81.6163 127.348 81.6163C127.836 81.6163 128.368 81.4833 128.634 81.3059Z" fill="#E2231A"/>
<path d="M121.804 83.7455H118.699L118.965 82.4591L122.957 78.2896H124.421L123.578 82.6809H124.421L124.199 83.7455H123.312L123.001 85.2092H121.493L121.804 83.7455ZM121.981 82.6365L122.469 80.0638H122.425L120.074 82.5478V82.5922H121.981V82.6365Z" fill="#E2231A"/>
<path d="M85.7859 53.849C85.5197 53.6716 84.81 53.4942 83.7898 53.4942C81.8381 53.4942 79.7534 54.8692 78.6444 56.2443L79.1767 53.9377H72.0353L68.3093 74.4305H75.3177L77.4912 62.4542C78.0678 60.9905 79.8864 59.5267 81.7938 59.3049C82.8583 59.1718 83.8342 59.2605 84.6326 59.7485L85.7859 53.849Z" fill="#E2231A"/>
<path d="M109.65 43.3365L104.061 74.1644H111.247L111.291 74.0313C111.291 73.8983 116.791 43.3365 116.791 43.3365H109.65Z" fill="#E2231A"/>
<path d="M123.001 74.608C120.65 74.5193 118.166 73.8539 116.658 72.2571C115.594 71.1038 115.017 69.7288 114.795 68.1763C114.573 66.402 114.706 64.6277 115.239 62.8978C115.993 60.4138 117.19 58.2404 119.098 56.4217C119.63 55.9338 120.162 55.4902 120.739 55.091C120.739 55.091 120.739 55.091 120.783 55.091C122.203 54.1152 123.755 53.4942 125.485 53.2724C127.259 53.0063 129.034 53.0063 130.764 53.6716C131.429 53.9378 132.006 54.2926 132.449 54.7805C133.514 55.712 134.09 57.1314 133.691 59.0388C132.36 65.3818 125.485 66.7125 121.138 66.9343C121.316 68.4868 122.824 69.3295 124.287 69.4183C127.126 69.64 130.187 68.265 131.207 67.4222L130.187 73.2329C130.187 73.2329 127.038 74.7411 123.001 74.608ZM121.449 62.5873C123.045 62.4543 127.348 61.8333 127.703 59.2162C127.925 57.4419 126.017 56.9097 123.977 58.5509C122.513 59.7485 121.715 61.7889 121.582 62.1438C121.493 62.2768 121.493 62.4543 121.449 62.5873Z" fill="#E2231A"/>
<path d="M67.2891 56.8209C65.9584 54.958 64.0511 53.9378 62.055 53.8934C60.192 53.8047 58.329 54.5144 56.7322 55.712L57.0427 53.8934H50.1674L44.6672 84.4552H51.5425L53.4942 73.5878C56.0669 75.7169 59.8372 75.3177 61.6558 74.5636C63.6962 73.6765 65.6035 72.0353 66.8012 69.7731C67.9545 67.644 68.5754 65.0269 68.6198 62.4986C68.7085 60.4582 68.3537 58.3734 67.2891 56.8209ZM61.9219 64.1842C61.9219 64.2285 61.9219 64.2729 61.8776 64.2729C61.8776 64.3172 61.8776 64.3172 61.8776 64.3616C61.3453 67.2891 59.6597 70.3497 57.2201 70.1723C55.8007 70.0836 55.1354 69.5957 54.3813 68.8416L55.7564 60.5913C56.5548 59.3049 57.708 58.4178 59.2162 58.3734C61.7889 58.2404 62.4099 61.2566 61.9219 64.1842Z" fill="#E2231A"/>
<path d="M103.218 56.5104C101.621 54.6475 99.2259 53.5829 96.5645 53.5385H96.4314H96.2984C93.5926 53.5829 90.8425 54.6475 88.536 56.5104C86.0963 58.5509 84.7656 61.3453 84.2334 64.2729C83.7011 67.2004 84.0116 69.9949 85.7415 72.0353C87.3383 73.8983 89.7336 74.9628 92.395 75.0072H92.5281H92.6611C95.3669 74.9628 98.117 73.8983 100.424 72.0353C102.908 69.9949 104.194 67.2004 104.726 64.2729C105.214 61.3453 104.948 58.5509 103.218 56.5104ZM98.117 64.0067C98.117 64.0511 98.117 64.0954 98.117 64.0954C97.5847 67.0673 96.0322 70.2167 93.4152 70.1723C90.7538 70.1723 90.3989 67.023 90.9312 64.0954C90.9312 64.0511 90.9312 64.0511 90.9312 64.0067C90.9312 63.9624 90.9312 63.9624 90.9312 63.918C91.4635 60.9461 93.016 57.7968 95.633 57.8411C98.2501 57.8411 98.6493 60.9905 98.117 63.918C98.117 63.9624 98.117 64.0067 98.117 64.0067Z" fill="#E2231A"/>
<path d="M45.4213 56.5104C43.8244 54.6475 41.4292 53.5829 38.7678 53.5385H38.6347H38.5016C35.7959 53.5829 33.0458 54.6475 30.7392 56.5104C28.2552 58.5509 26.9689 61.3453 26.4366 64.2729C25.9043 67.2004 26.2148 69.9949 27.9447 72.0353C29.5416 73.8983 31.8925 74.9628 34.5982 75.0072H34.7313H34.8644C37.5701 74.9628 40.3203 73.8983 42.6268 72.0353C45.1108 69.9949 46.3971 67.2004 46.9294 64.2729C47.4173 61.3453 47.1512 58.5509 45.4213 56.5104ZM40.3203 64.0067C40.3203 64.0511 40.3203 64.0954 40.3203 64.0954C39.788 67.0673 38.2355 70.2167 35.6184 70.1723C32.957 70.1723 32.6022 67.023 33.1345 64.0954C33.1345 64.0511 33.1345 64.0511 33.1788 64.0067C33.1788 63.9624 33.1788 63.9624 33.1788 63.918C33.7111 60.9461 35.2636 57.7968 37.8806 57.8411C40.542 57.8411 40.8969 60.9905 40.3646 63.918C40.3203 63.9624 40.3203 64.0067 40.3203 64.0067Z" fill="#E2231A"/>
<path d="M17.4322 54.6918C15.8354 53.5829 13.3957 52.6071 14.1498 50.2118C14.9482 47.6391 19.6944 46.9294 25.0615 50.7884L26.5697 45.2438C24.618 43.2478 17.0773 40.8082 11.5328 44.1793C6.91965 46.9738 5.18974 53.0506 8.11728 56.7766C10.202 59.3936 13.3957 60.8574 15.6136 62.3655C17.4766 63.6519 18.5855 64.9382 17.9201 66.7125C16.4563 70.6159 7.76243 67.7327 4.9236 64.5834C4.9236 64.5834 2.04041 68.265 4.6131 71.3256C6.07687 73.0555 7.93986 73.8539 8.9157 74.1644C9.13749 74.2088 9.40363 74.2975 9.62541 74.3418C10.7787 74.608 12.0207 74.7854 13.2183 74.8741C17.1217 75.0515 23.5091 73.1442 24.8841 66.4463C26.3479 59.0831 21.0251 57.2645 17.4322 54.6918Z" fill="#E2231A"/>
<path d="M36.062 29.1423C35.3079 31.1384 35.3966 33.3119 35.9733 35.1748C37.1709 38.9895 41.2074 40.7194 44.6228 41.0299C48.6593 41.4291 52.6958 39.9654 55.2241 37.2153C57.1758 35.0861 58.1073 32.1142 57.8411 29.1423H55.1797C54.9136 29.1423 54.7362 29.4528 54.9136 29.6746L55.4459 30.3843C55.5346 30.5174 55.5346 30.6505 55.4459 30.7835C55.1354 31.2271 54.5587 31.9368 54.0708 32.4691C51.4981 35.0861 47.8609 36.2838 44.2236 36.062C41.5622 35.8402 39.2113 35.0861 37.7919 32.6022C37.3927 31.9368 37.2596 31.0053 37.2153 30.7392C37.2153 30.6505 37.2153 30.5174 37.304 30.473L37.8806 29.7633C38.1024 29.4972 37.9693 29.1867 37.5701 29.1867H36.062V29.1423Z" fill="#E2231A"/>
<path d="M49.7238 7.05269C49.7238 4.74615 52.7844 5.50021 51.1876 10.4682C51.1876 10.4682 49.7238 8.87132 49.7238 7.05269ZM47.8608 21.5573C50.6997 18.9403 51.7199 14.9482 51.7199 14.9482C51.7199 14.9482 55.8007 19.2508 57.2645 21.3799C59.1718 24.13 60.2364 26.2148 60.7243 27.9003C62.2324 32.6465 61.3453 38.058 57.9298 41.784C54.5587 45.51 49.2803 47.1955 44.3567 46.7076C39.4331 46.2197 34.4651 43.6913 32.9126 38.7234C31.8924 35.3523 32.336 31.6707 33.8441 28.5213C37.4814 20.892 46.1753 15.3474 47.1068 14.6377C47.4173 14.4159 47.4173 14.2385 47.3286 14.1054C47.2399 14.0167 47.1068 13.9723 46.7963 14.1054C46.6632 14.1941 45.9979 14.5933 45.8648 14.6377C43.9131 15.8797 43.159 16.412 41.6953 17.4765C39.3887 19.1621 37.2596 20.9807 35.3079 23.0655C34.1546 24.3518 33.0013 25.8599 31.9811 27.5899C29.5859 31.7594 28.7431 36.7717 30.3843 41.3404C32.5578 47.4617 38.7234 50.8328 44.9777 51.2763C51.0989 51.6755 57.3975 49.2803 61.3896 44.5785C65.5592 39.6105 66.5794 32.7352 64.4059 26.6584C63.6518 24.6623 62.6316 22.7993 61.5227 21.1581C59.1718 17.7427 55.5346 14.6377 52.7844 11.8876C53.1393 9.93588 53.5829 8.25033 53.4498 6.96398C53.3167 5.50021 52.4296 3.81465 50.611 3.85901C48.8811 3.94772 48.127 5.45585 48.0383 6.91962C47.8609 9.98024 50.4335 13.3957 50.4335 13.3957C50.4335 13.3957 49.6351 16.7668 47.3286 20.2266C45.8648 22.4001 47.2399 22.1783 47.8608 21.5573Z" fill="#E2231A"/>
<path d="M133.514 77.7129L133.026 77.0032C132.804 76.6484 132.76 76.6484 132.627 76.6484H132.582V77.7129H132.183V75.2733H132.937C133.514 75.2733 133.824 75.4951 133.824 75.9387C133.824 76.3379 133.558 76.5597 133.203 76.604C133.248 76.6484 133.336 76.7371 133.469 76.9589L134.002 77.7129H133.514ZM132.893 75.5838H132.582V76.3379H132.893C133.203 76.3379 133.336 76.2048 133.336 75.983C133.381 75.7169 133.203 75.5838 132.893 75.5838Z" fill="#E2231A"/>
<path d="M132.981 78.5114C131.872 78.5114 130.985 77.6242 130.985 76.5153C130.985 75.4064 131.872 74.5193 132.981 74.5193C134.09 74.5193 134.977 75.4064 134.977 76.5153C135.022 77.6242 134.09 78.5114 132.981 78.5114ZM132.981 74.7854C132.05 74.7854 131.251 75.5395 131.296 76.4709C131.296 77.4024 132.05 78.2009 132.981 78.2009C133.913 78.2009 134.667 77.4468 134.667 76.4709C134.711 75.5395 133.913 74.7854 132.981 74.7854Z" fill="#E2231A"/>
</svg>
